HIERARCHY
ROOT reference
{
  OFFSET 0 0 0
  CHANNELS 6 Xposition Yposition Zposition Zrotation Xrotation Yrotation
  JOINT Hips
  {
    OFFSET 356.501 91.4882 232.072
    CHANNELS 3 Zrotation Xrotation Yrotation
    JOINT RightUpLeg
    {
      OFFSET -9.22368 -1.56954 0.0182318
      CHANNELS 3 Zrotation Xrotation Yrotation
      JOINT RightLeg
      {
        OFFSET 0.0168043 -41.8502 0.039304
        CHANNELS 3 Zrotation Xrotation Yrotation
        JOINT RightFoot
        {
          OFFSET -1.24655 -41.4872 1.84727
          CHANNELS 3 Zrotation Xrotation Yrotation
          End Site
          {
            OFFSET 0 -7.69 17.5
          }
        }
      }
    }
    JOINT LeftUpLeg
    {
      OFFSET 9.32755 -1.5915 0.117934
      CHANNELS 3 Zrotation Xrotation Yrotation
      JOINT LeftLeg
      {
        OFFSET 0.115891 -41.8441 0.138627
        CHANNELS 3 Zrotation Xrotation Yrotation
        JOINT LeftFoot
        {
          OFFSET -0.00258131 -42.0603 -2.16995
          CHANNELS 3 Zrotation Xrotation Yrotation
          End Site
          {
            OFFSET 0 -7.69 17.5
          }
        }
      }
    }
    JOINT Spine
    {
      OFFSET 0.0618908 14.3142 0.263402
      CHANNELS 3 Zrotation Xrotation Yrotation
      JOINT Spine1
      {
        OFFSET 0.00953893 9.71784 0.0772804
        CHANNELS 3 Zrotation Xrotation Yrotation
        JOINT Spine2
        {
          OFFSET 0.0659978 10.1164 -0.109334
          CHANNELS 3 Zrotation Xrotation Yrotation
          JOINT Spine3
          {
            OFFSET 0.00354353 9.7233 0.0181573
            CHANNELS 3 Zrotation Xrotation Yrotation
            JOINT Neck
            {
              OFFSET -0.106539 10.3631 0.143191
              CHANNELS 3 Zrotation Xrotation Yrotation
              JOINT Head
              {
                OFFSET 0.0687213 9.49492 0.178169
                CHANNELS 3 Zrotation Xrotation Yrotation
                End Site
                {
                  OFFSET 0 15.95 0
                }
              }
            }
            JOINT RightShoulder
            {
              OFFSET -3.17341 6.93407 0.0508814
              CHANNELS 3 Zrotation Xrotation Yrotation
              JOINT RightArm
              {
                OFFSET -12.8122 0.02699 0.0058978
                CHANNELS 3 Zrotation Xrotation Yrotation
                JOINT RightForeArm
                {
                  OFFSET -26.4689 -0.0132424 0.0432591
                  CHANNELS 3 Zrotation Xrotation Yrotation
                  JOINT RightHand
                  {
                    OFFSET -25.9762 -0.0747187 0.0544432
                    CHANNELS 3 Zrotation Xrotation Yrotation
                    JOINT RightHandThumb1
                    {
                      OFFSET -2.48905 0.190105 3.12053
                      CHANNELS 3 Zrotation Xrotation Yrotation
                      JOINT RightHandThumb2
                      {
                        OFFSET -3.68274 0 0
                        CHANNELS 3 Zrotation Xrotation Yrotation
                        JOINT RightHandThumb3
                        {
                          OFFSET -2.55832 0 0
                          CHANNELS 3 Zrotation Xrotation Yrotation
                          End Site
                          {
                            OFFSET -2.194 0 0
                          }
                        }
                      }
                    }
                    JOINT RightInHandIndex
                    {
                      OFFSET -3.22368 0.508421 1.97842
                      CHANNELS 3 Zrotation Xrotation Yrotation
                      JOINT RightHandIndex1
                      {
                        OFFSET -5.21684 -0.091368 0.999158
                        CHANNELS 3 Zrotation Xrotation Yrotation
                        JOINT RightHandIndex2
                        {
                          OFFSET -3.61937 0 0
                          CHANNELS 3 Zrotation Xrotation Yrotation
                          JOINT RightHandIndex3
                          {
                            OFFSET -2.0521 0 0
                            CHANNELS 3 Zrotation Xrotation Yrotation
                            End Site
                            {
                              OFFSET -1.805 0 0
                            }
                          }
                        }
                      }
                    }
                    JOINT RightInHandMiddle
                    {
                      OFFSET -3.38211 0.517263 0.756737
                      CHANNELS 3 Zrotation Xrotation Yrotation
                      JOINT RightHandMiddle1
                      {
                        OFFSET -5.17411 -0.084 0.313895
                        CHANNELS 3 Zrotation Xrotation Yrotation
                        JOINT RightHandMiddle2
                        {
                          OFFSET -3.94947 0 0
                          CHANNELS 3 Zrotation Xrotation Yrotation
                          JOINT RightHandMiddle3
                          {
                            OFFSET -2.47579 0 0
                            CHANNELS 3 Zrotation Xrotation Yrotation
                            End Site
                            {
                              OFFSET -1.975 0 0
                            }
                          }
                        }
                      }
                    }
                    JOINT RightInHandRing
                    {
                      OFFSET -3.36516 0.537895 -0.128947
                      CHANNELS 3 Zrotation Xrotation Yrotation
                      JOINT RightHandRing1
                      {
                        OFFSET -4.63474 -0.022105 -0.478947
                        CHANNELS 3 Zrotation Xrotation Yrotation
                        JOINT RightHandRing2
                        {
                          OFFSET -3.44238 0 0
                          CHANNELS 3 Zrotation Xrotation Yrotation
                          JOINT RightHandRing3
                          {
                            OFFSET -2.3881 0 0
                            CHANNELS 3 Zrotation Xrotation Yrotation
                            End Site
                            {
                              OFFSET -1.857 0 0
                            }
                          }
                        }
                      }
                    }
                    JOINT RightInHandPinky
                    {
                      OFFSET -3.16105 0.469368 -1.20179
                      CHANNELS 3 Zrotation Xrotation Yrotation
                      JOINT RightHandPinky1
                      {
                        OFFSET -4.14105 -0.022105 -1.09053
                        CHANNELS 3 Zrotation Xrotation Yrotation
                        JOINT RightHandPinky2
                        {
                          OFFSET -2.75653 0 0
                          CHANNELS 3 Zrotation Xrotation Yrotation
                          JOINT RightHandPinky3
                          {
                            OFFSET -1.74189 0 0
                            CHANNELS 3 Zrotation Xrotation Yrotation
                            End Site
                            {
                              OFFSET -1.645 0 0
                            }
                          }
                        }
                      }
                    }
                  }
                }
              }
            }
            JOINT LeftShoulder
            {
              OFFSET 3.13763 6.93537 0.265461
              CHANNELS 3 Zrotation Xrotation Yrotation
              JOINT LeftArm
              {
                OFFSET 12.4516 -0.0856895 0.350644
                CHANNELS 3 Zrotation Xrotation Yrotation
                JOINT LeftForeArm
                {
                  OFFSET 26.6962 -0.139113 0.0812581
                  CHANNELS 3 Zrotation Xrotation Yrotation
                  JOINT LeftHand
                  {
                    OFFSET 25.9561 0.0264111 -0.243705
                    CHANNELS 3 Zrotation Xrotation Yrotation
                    JOINT LeftHandThumb1
                    {
                      OFFSET 2.48905 0.190105 3.12053
                      CHANNELS 3 Zrotation Xrotation Yrotation
                      JOINT LeftHandThumb2
                      {
                        OFFSET 3.68274 0 0
                        CHANNELS 3 Zrotation Xrotation Yrotation
                        JOINT LeftHandThumb3
                        {
                          OFFSET 2.55832 0 0
                          CHANNELS 3 Zrotation Xrotation Yrotation
                          End Site
                          {
                            OFFSET 2.194 0 0
                          }
                        }
                      }
                    }
                    JOINT LeftInHandIndex
                    {
                      OFFSET 3.22368 0.508421 1.97842
                      CHANNELS 3 Zrotation Xrotation Yrotation
                      JOINT LeftHandIndex1
                      {
                        OFFSET 5.21684 -0.091368 0.999158
                        CHANNELS 3 Zrotation Xrotation Yrotation
                        JOINT LeftHandIndex2
                        {
                          OFFSET 3.61937 0 0
                          CHANNELS 3 Zrotation Xrotation Yrotation
                          JOINT LeftHandIndex3
                          {
                            OFFSET 2.0521 0 0
                            CHANNELS 3 Zrotation Xrotation Yrotation
                            End Site
                            {
                              OFFSET 1.805 0 0
                            }
                          }
                        }
                      }
                    }
                    JOINT LeftInHandMiddle
                    {
                      OFFSET 3.38211 0.517263 0.756737
                      CHANNELS 3 Zrotation Xrotation Yrotation
                      JOINT LeftHandMiddle1
                      {
                        OFFSET 5.17411 -0.084 0.313895
                        CHANNELS 3 Zrotation Xrotation Yrotation
                        JOINT LeftHandMiddle2
                        {
                          OFFSET 3.94947 0 0
                          CHANNELS 3 Zrotation Xrotation Yrotation
                          JOINT LeftHandMiddle3
                          {
                            OFFSET 2.47579 0 0
                            CHANNELS 3 Zrotation Xrotation Yrotation
                            End Site
                            {
                              OFFSET 1.975 0 0
                            }
                          }
                        }
                      }
                    }
                    JOINT LeftInHandRing
                    {
                      OFFSET 3.36516 0.537895 -0.128947
                      CHANNELS 3 Zrotation Xrotation Yrotation
                      JOINT LeftHandRing1
                      {
                        OFFSET 4.63474 -0.022105 -0.478947
                        CHANNELS 3 Zrotation Xrotation Yrotation
                        JOINT LeftHandRing2
                        {
                          OFFSET 3.44238 0 0
                          CHANNELS 3 Zrotation Xrotation Yrotation
                          JOINT LeftHandRing3
                          {
                            OFFSET 2.3881 0 0
                            CHANNELS 3 Zrotation Xrotation Yrotation
                            End Site
                            {
                              OFFSET 1.857 0 0
                            }
                          }
                        }
                      }
                    }
                    JOINT LeftInHandPinky
                    {
                      OFFSET 3.16105 0.469368 -1.20179
                      CHANNELS 3 Zrotation Xrotation Yrotation
                      JOINT LeftHandPinky1
                      {
                        OFFSET 4.14105 -0.022105 -1.09053
                        CHANNELS 3 Zrotation Xrotation Yrotation
                        JOINT LeftHandPinky2
                        {
                          OFFSET 2.75653 0 0
                          CHANNELS 3 Zrotation Xrotation Yrotation
                          JOINT LeftHandPinky3
                          {
                            OFFSET 1.74189 0 0
                            CHANNELS 3 Zrotation Xrotation Yrotation
                            End Site
                            {
                              OFFSET 1.645 0 0
                            }
                          }
                        }
                      }
                    }
                  }
                }
              }
            }
          }
        }
      }
    }
  }
}
MOTION
Frames: 2
Frame Time: 0.00833333
4.500000000000000000e+02 0.000000000000000000e+00 0.000000000000000000e+00 0.000000000000000000e+00 0.000000000000000000e+00 0.000000000000000000e+00 -9.451337731776103535e-02 3.174782621223574963e-02 4.093414116542309911e-01 -6.023389017141279611e-01 9.042950410581818144e-02 -9.471591425590711877e-01 7.856144750758044248e-02 5.664022431084002329e-02 -6.529757596456571556e-02 -3.065676195575488955e-02 2.238461974834082477e-02 2.915089132248304682e-01 -2.552816706594008278e-01 -4.685619335787741951e-02 -8.269503461629897911e-01 -2.671138464025267778e-01 1.159646366627461733e-01 4.363877043719269766e-01 -7.215755849664629799e-04 -1.405872723099525767e-01 -2.183488860619340818e-02 1.052877662511225026e-01 9.471797925632723103e-02 -1.161350532262309804e-01 2.319862550813685600e-02 1.752734922448251353e-02 -2.363245691912946311e-02 3.991799127973163358e-02 3.074217038430147528e-02 -4.185838458594121764e-02 -5.645991063858249795e-03 -2.649448427607171887e-03 -2.488758833679488060e-03 -6.821440709800185437e-03 3.874307831837899008e-02 -1.525464193958367687e-01 -6.685658110849233837e-02 -9.133298006473654362e-02 1.052189466321537953e-01 1.870249486464393984e-02 3.342013328768581731e-02 -5.593683403363158835e-01 1.554073648552409259e-01 2.473460831502890256e-01 -2.983725180785311015e-01 1.552583355599494119e+00 2.160407903048521261e-01 1.823329110944167164e+00 7.007377838593741026e-02 -7.485420527946977653e-01 2.914324587874078110e-01 0.000000000000000000e+00 0.000000000000000000e+00 0.000000000000000000e+00 -1.982675838589463516e-15 8.557264906156817227e-16 0.000000000000000000e+00 4.362607569111032299e-16 3.660401933619758301e-16 0.000000000000000000e+00 3.175352258343547311e-15 8.939217459111578340e-16 4.459638898493678213e-15 0.000000000000000000e+00 0.000000000000000000e+00 0.000000000000000000e+00 0.000000000000000000e+00 -1.849418269494760080e-19 -4.797616036115632307e-15 0.000000000000000000e+00 -4.378271649360729748e-15 -2.059026345589597993e-14 3.175352258343547311e-15 8.939217459111578340e-16 4.459638898493678213e-15 0.000000000000000000e+00 -5.881487037376965493e-15 -3.070314423368191501e-15 0.000000000000000000e+00 2.273210280487098399e-15 -9.141976621792246339e-15 0.000000000000000000e+00 -8.636204537195257723e-17 -1.037815156041052533e-14 3.175352258343547311e-15 8.939217459111578340e-16 4.459638898493678213e-15 0.000000000000000000e+00 0.000000000000000000e+00 0.000000000000000000e+00 0.000000000000000000e+00 -1.630734196985393499e-15 1.494883158069445525e-16 0.000000000000000000e+00 4.052770564483717043e-15 -8.985971569458066432e-16 3.175352258343547311e-15 8.939217459111578340e-16 4.459638898493678213e-15 0.000000000000000000e+00 0.000000000000000000e+00 0.000000000000000000e+00 0.000000000000000000e+00 -2.748609824202230429e-15 -3.667991389672055944e-15 0.000000000000000000e+00 8.169295632151695859e-16 2.421313682302539065e-15 2.182336264121409741e-01 -1.690361420336741194e-01 -4.719766389090147007e-01 -6.617507723412446863e-01 -7.236060302207315831e-02 7.757679646788878669e-01 -2.743405972494836753e+00 8.529028204639188537e-01 -2.975362040326274382e+00 8.830359417386866028e-01 6.764813351821764853e-02 2.917651232556087715e-01 0.000000000000000000e+00 0.000000000000000000e+00 0.000000000000000000e+00 -3.187761978978088277e-15 6.768246756528981325e-16 0.000000000000000000e+00 6.185988943071917014e-15 -2.534092366721961174e-15 0.000000000000000000e+00 -1.534300653751350711e-15 -1.084812064723103899e-15 2.697507745141671468e-15 0.000000000000000000e+00 0.000000000000000000e+00 0.000000000000000000e+00 0.000000000000000000e+00 3.714694395802759074e-16 4.397116514619031245e-15 0.000000000000000000e+00 -3.392534378961029983e-17 1.136368313085409292e-14 -1.534300653751350711e-15 -1.084812064723103899e-15 2.697507745141671468e-15 0.000000000000000000e+00 1.308283171337636581e-15 7.207490501846538988e-16 0.000000000000000000e+00 -4.243738383831086522e-15 4.449393576280318541e-15 0.000000000000000000e+00 2.112543226984906585e-15 -9.798877588077347995e-16 -1.534300653751350711e-15 -1.084812064723103899e-15 2.697507745141671468e-15 0.000000000000000000e+00 0.000000000000000000e+00 0.000000000000000000e+00 0.000000000000000000e+00 -7.876784569816836691e-16 6.484644257845192928e-15 0.000000000000000000e+00 -1.129131723034362105e-15 2.673968500716667329e-15 -1.534300653751350711e-15 -1.084812064723103899e-15 2.697507745141671468e-15 0.000000000000000000e+00 0.000000000000000000e+00 0.000000000000000000e+00 0.000000000000000000e+00 1.084775305004330975e-16 3.485231309709318360e-15 0.000000000000000000e+00 -4.587211710570304461e-17 5.643266892788271133e-15
4.500000000000000000e+02 0.000000000000000000e+00 0.000000000000000000e+00 0.000000000000000000e+00 0.000000000000000000e+00 0.000000000000000000e+00 -9.743752230696522965e-02 4.765492334779140166e-02 4.855865125898773949e-01 -6.801653181504540013e-01 1.021024945495893343e-01 -1.040133135460728386e+00 8.755002812008202961e-02 5.853738712484911344e-02 -7.599844779499435876e-02 -2.933325626563907523e-02 1.900528521307259106e-02 2.720291598437830083e-01 -2.957706270711619179e-01 -7.868175114645990786e-02 -9.043714420027765266e-01 -2.520780434092974587e-01 1.199440834427370484e-01 4.267372534912170501e-01 1.062125124523704937e-02 -1.305964402644223810e-01 -2.875767662825306700e-02 1.131688831492681235e-01 1.072193894240493633e-01 -1.116786395060450909e-01 2.540360461294252636e-02 1.982560249557297274e-02 -2.193323792479019360e-02 4.371225858876399278e-02 3.400799164535334845e-02 -3.904993344284220930e-02 -4.490727419489130845e-03 -6.716345130117467449e-04 -6.349726827700435082e-03 -4.894960555386062943e-03 3.392605507400801856e-02 -1.300090732014981820e-01 -4.160850154724538008e-02 -5.978977937042724566e-02 1.910117793831293473e-02 8.149081243270411487e-03 2.262082205289035058e-02 -5.811963407569228357e-01 1.558372305761962784e-01 3.149847522729047888e-01 -3.398218270316907819e-01 1.634176442874385016e+00 1.934925814952658252e-01 1.903611561526346252e+00 7.944802409717402480e-02 -7.851307495499353362e-01 3.268150538745703826e-01 0.000000000000000000e+00 0.000000000000000000e+00 0.000000000000000000e+00 -1.877528933597127391e-15 9.661458638602140114e-16 0.000000000000000000e+00 9.744252417164027771e-16 3.401329256214027773e-16 0.000000000000000000e+00 3.240890839358442242e-15 9.741223778711792766e-16 4.752974380429610889e-15 0.000000000000000000e+00 0.000000000000000000e+00 0.000000000000000000e+00 0.000000000000000000e+00 2.115954344954826871e-16 -5.050360946616970121e-15 0.000000000000000000e+00 -4.431273319999305915e-15 -2.069287786688060643e-14 3.240890839358442242e-15 9.741223778711792766e-16 4.752974380429610889e-15 0.000000000000000000e+00 -6.189669751670530805e-15 -3.366384517507577464e-15 0.000000000000000000e+00 2.309844137362470506e-15 -9.448954977619838353e-15 0.000000000000000000e+00 3.762458752916143437e-17 -1.034119008355380290e-14 3.240890839358442242e-15 9.741223778711792766e-16 4.752974380429610889e-15 0.000000000000000000e+00 0.000000000000000000e+00 0.000000000000000000e+00 0.000000000000000000e+00 -1.723074332841023604e-15 1.671503694164776871e-16 0.000000000000000000e+00 4.302534633772266661e-15 -7.028634618837155465e-16 3.240890839358442242e-15 9.741223778711792766e-16 4.752974380429610889e-15 0.000000000000000000e+00 0.000000000000000000e+00 0.000000000000000000e+00 0.000000000000000000e+00 -2.849354020057686745e-15 -3.939729424343950858e-15 0.000000000000000000e+00 9.885183698061682329e-16 2.529004490441668878e-15 2.337414953048227440e-01 -1.772684856942633169e-01 -4.791796938307320564e-01 -7.070008784326778928e-01 -5.745400707150531000e-02 8.491601174469395330e-01 -2.952643236675259963e+00 8.378361788552525224e-01 -3.205793521813272040e+00 9.643276329709845607e-01 8.902350444928361362e-02 3.252948305448146726e-01 0.000000000000000000e+00 0.000000000000000000e+00 0.000000000000000000e+00 -3.207574454459921134e-15 6.566632757798208620e-16 0.000000000000000000e+00 6.546086118046942654e-15 -2.698761518312099386e-15 0.000000000000000000e+00 -1.798931821835765997e-15 -9.846654343357918556e-16 3.085962589333476910e-15 0.000000000000000000e+00 0.000000000000000000e+00 0.000000000000000000e+00 0.000000000000000000e+00 3.492438548820697095e-16 4.586378601602611600e-15 0.000000000000000000e+00 -6.768523149304262606e-17 1.225584899281238136e-14 -1.798931821835765997e-15 -9.846654343357918556e-16 3.085962589333476910e-15 0.000000000000000000e+00 1.212948200177197138e-15 7.010315978614666005e-16 0.000000000000000000e+00 -4.481339981926557253e-15 4.977988243751775704e-15 0.000000000000000000e+00 2.314280352656203673e-15 -6.386878994472405432e-16 -1.798931821835765997e-15 -9.846654343357918556e-16 3.085962589333476910e-15 0.000000000000000000e+00 0.000000000000000000e+00 0.000000000000000000e+00 0.000000000000000000e+00 -8.266899563958454294e-16 6.851138242727517203e-15 0.000000000000000000e+00 -1.181719252269490838e-15 3.027887102594213373e-15 -1.798931821835765997e-15 -9.846654343357918556e-16 3.085962589333476910e-15 0.000000000000000000e+00 0.000000000000000000e+00 0.000000000000000000e+00 0.000000000000000000e+00 -2.641305621974943864e-18 3.456721560397089708e-15 0.000000000000000000e+00 1.549653189123719910e-16 5.573184881850728702e-15
